Coordinates
version=1
nRows=89
nColumns=19
inDegrees=yes

Units are S.I. units (second, meters, Newtons, ...)
Angles are in degrees.

endheader
time	ground_force_vx	ground_force_vy	ground_force_vz	ground_force_px	ground_force_py	ground_force_pz	1_ground_force_vx	1_ground_force_vy	1_ground_force_vz	1_ground_force_px	1_ground_force_py	1_ground_force_pz	ground_torque_x	ground_torque_y	ground_torque_z	1_ground_torque_x	1_ground_torque_y	1_ground_torque_z
0.0075	7.862	0.981	2.344	-0.132	0.000	0.387	-28.927	7.069	1.139	-0.204	0.000	0.229	0.00000	-8.72169	0.00000	0.00000	39.93118	0.00000
0.0100	7.823	0.287	2.698	-0.163	0.000	0.395	-28.711	6.209	1.225	-0.203	0.000	0.230	0.00000	-31.87217	0.00000	0.00000	44.10983	0.00000
0.0125	8.039	-0.242	2.520	-0.154	0.000	0.378	-28.584	5.871	1.836	-0.202	0.000	0.230	0.00000	45.44573	0.00000	0.00000	46.39864	0.00000
0.0150	8.125	0.975	2.519	-0.114	0.000	0.369	-28.799	7.068	1.315	-0.204	0.000	0.231	0.00000	-10.30431	0.00000	0.00000	40.35081	0.00000
0.0175	8.039	0.632	2.476	-0.139	0.000	0.385	-28.803	6.552	1.661	-0.202	0.000	0.229	0.00000	-14.82949	0.00000	0.00000	42.58784	0.00000
0.0200	8.082	1.498	2.606	-0.109	0.000	0.349	-28.627	7.752	1.446	-0.204	0.000	0.227	0.00000	-6.68164	0.00000	0.00000	36.60468	0.00000
0.0225	8.261	0.799	2.650	-0.132	0.000	0.371	-28.408	7.069	1.576	-0.203	0.000	0.227	0.00000	-12.90366	0.00000	0.00000	39.17754	0.00000
0.0250	8.303	0.624	2.473	-0.135	0.000	0.370	-28.322	6.549	1.400	-0.202	0.000	0.228	0.00000	-16.70947	0.00000	0.00000	41.17819	0.00000
0.0275	7.554	0.453	2.432	-0.126	0.000	0.378	-28.408	7.581	1.359	-0.204	0.000	0.227	0.00000	-21.61317	0.00000	0.00000	36.99654	0.00000
0.0300	8.258	-0.249	2.341	-0.143	0.000	0.373	-27.975	6.038	1.793	-0.200	0.000	0.227	0.00000	45.89778	0.00000	0.00000	43.74295	0.00000
0.0325	8.218	-0.422	2.781	-0.158	0.000	0.361	-28.065	6.039	2.098	-0.201	0.000	0.227	0.00000	29.95680	0.00000	0.00000	44.23956	0.00000
0.0350	8.042	0.458	2.697	-0.148	0.000	0.391	-28.282	6.890	1.662	-0.202	0.000	0.227	0.00000	-20.78958	0.00000	0.00000	39.62006	0.00000
0.0375	8.086	0.457	2.918	-0.133	0.000	0.396	-28.329	7.062	1.967	-0.201	0.000	0.226	0.00000	-21.45781	0.00000	0.00000	39.05572	0.00000
0.0400	7.996	0.975	2.651	-0.121	0.000	0.370	-28.242	8.610	2.145	-0.204	0.000	0.222	0.00000	-10.25177	0.00000	0.00000	33.22182	0.00000
0.0425	8.132	-0.413	2.830	-0.163	0.000	0.399	-28.159	7.576	2.407	-0.201	0.000	0.226	0.00000	25.02331	0.00000	0.00000	37.39713	0.00000
0.0450	8.351	0.802	2.871	-0.128	0.000	0.392	-28.160	7.921	2.536	-0.203	0.000	0.222	0.00000	-12.10015	0.00000	0.00000	35.31399	0.00000
0.0475	8.261	0.459	2.918	-0.137	0.000	0.393	-27.857	8.606	2.758	-0.203	0.000	0.223	0.00000	-21.76018	0.00000	0.00000	33.39989	0.00000
0.0500	8.613	-0.417	3.004	-0.148	0.000	0.385	-27.642	6.892	3.281	-0.202	0.000	0.226	0.00000	29.23534	0.00000	0.00000	40.26837	0.00000
0.0525	8.743	-0.767	2.429	-0.168	0.000	0.379	-27.596	7.409	3.193	-0.204	0.000	0.222	0.00000	15.90195	0.00000	0.00000	37.14961	0.00000
0.0550	8.260	-0.413	2.830	-0.152	0.000	0.384	-27.337	7.235	3.370	-0.204	0.000	0.224	0.00000	28.09875	0.00000	0.00000	38.18981	0.00000
0.0575	8.394	-0.241	2.740	-0.157	0.000	0.392	-27.468	7.920	3.196	-0.203	0.000	0.223	0.00000	44.56279	0.00000	0.00000	35.50562	0.00000
0.0600	8.614	-0.593	2.739	-0.157	0.000	0.390	-27.381	7.404	3.283	-0.203	0.000	0.224	0.00000	19.64459	0.00000	0.00000	37.42922	0.00000
0.0625	8.481	0.802	2.694	-0.142	0.000	0.371	-27.424	8.602	2.890	-0.203	0.000	0.222	0.00000	-12.86707	0.00000	0.00000	32.81276	0.00000
0.0650	8.616	0.109	2.961	-0.159	0.000	0.400	-27.295	9.117	3.066	-0.202	0.000	0.220	0.00000	-92.32811	0.00000	0.00000	31.17545	0.00000
0.0675	8.659	0.452	2.781	-0.155	0.000	0.377	-27.294	9.288	2.935	-0.204	0.000	0.220	0.00000	-23.67531	0.00000	0.00000	30.55954	0.00000
0.0700	8.792	-1.456	2.785	-0.188	0.000	0.402	-26.817	8.260	3.460	-0.204	0.000	0.220	0.00000	8.12101	0.00000	0.00000	33.29298	0.00000
0.0725	8.836	-1.116	3.091	-0.161	0.000	0.392	-26.908	6.712	3.630	-0.199	0.000	0.223	0.00000	11.55133	0.00000	0.00000	39.77022	0.00000
0.0750	9.054	-0.589	2.915	-0.169	0.000	0.388	-26.735	7.056	3.850	-0.200	0.000	0.223	0.00000	20.74966	0.00000	0.00000	38.26950	0.00000
0.0775	8.836	-0.766	3.003	-0.170	0.000	0.386	-26.868	7.058	4.111	-0.200	0.000	0.222	0.00000	16.30075	0.00000	0.00000	38.47000	0.00000
0.0800	8.836	-0.588	3.004	-0.170	0.000	0.391	-26.561	8.945	4.074	-0.205	0.000	0.219	0.00000	20.13567	0.00000	0.00000	31.47903	0.00000
0.0825	8.397	0.116	3.095	-0.172	0.000	0.398	-26.824	8.767	3.721	-0.202	0.000	0.220	0.00000	-85.51401	0.00000	0.00000	31.90418	0.00000
0.0850	8.838	-0.407	3.007	-0.176	0.000	0.423	-26.608	9.111	4.029	-0.203	0.000	0.220	0.00000	23.24989	0.00000	0.00000	31.06594	0.00000
0.0875	8.839	-0.407	3.183	-0.184	0.000	0.408	-26.216	9.452	3.988	-0.203	0.000	0.219	0.00000	25.58201	0.00000	0.00000	29.74412	0.00000
0.0900	9.057	-0.586	3.490	-0.159	0.000	0.395	-26.350	8.082	4.509	-0.202	0.000	0.220	0.00000	21.66913	0.00000	0.00000	34.09305	0.00000
0.0925	9.232	-0.590	3.267	-0.170	0.000	0.378	-26.353	8.257	4.900	-0.202	0.000	0.218	0.00000	22.80321	0.00000	0.00000	33.41940	0.00000
0.0950	9.103	-1.803	3.358	-0.195	0.000	0.395	-25.959	9.457	4.819	-0.205	0.000	0.217	0.00000	7.68530	0.00000	0.00000	29.79207	0.00000
0.0975	9.235	-0.069	3.663	-0.149	0.000	0.375	-25.960	9.629	4.817	-0.203	0.000	0.216	0.00000	194.95940	0.00000	0.00000	29.27453	0.00000
0.1000	9.543	-1.633	3.313	-0.185	0.000	0.405	-25.696	8.765	4.424	-0.203	0.000	0.218	0.00000	8.20745	0.00000	0.00000	30.98656	0.00000
0.1025	8.971	-0.404	3.315	-0.190	0.000	0.400	-26.048	9.451	4.510	-0.202	0.000	0.216	0.00000	27.35510	0.00000	0.00000	29.47536	0.00000
0.1050	9.016	-1.271	3.318	-0.199	0.000	0.425	-25.918	10.136	4.512	-0.202	0.000	0.216	0.00000	8.34272	0.00000	0.00000	27.88382	0.00000
0.1075	8.756	-0.225	3.626	-0.193	0.000	0.425	-25.917	8.933	4.424	-0.200	0.000	0.219	0.00000	41.31214	0.00000	0.00000	30.98304	0.00000
0.1100	8.973	-0.406	3.491	-0.190	0.000	0.395	-25.787	10.651	4.557	-0.203	0.000	0.214	0.00000	28.41228	0.00000	0.00000	26.61358	0.00000
0.1125	8.925	0.639	3.359	-0.165	0.000	0.389	-25.791	8.931	4.815	-0.200	0.000	0.217	0.00000	-16.08388	0.00000	0.00000	30.63254	0.00000
0.1150	9.151	-1.272	3.670	-0.199	0.000	0.425	-25.661	10.306	4.994	-0.203	0.000	0.215	0.00000	8.73043	0.00000	0.00000	27.43675	0.00000
0.1175	9.284	-1.971	3.801	-0.209	0.000	0.403	-25.228	8.933	5.429	-0.201	0.000	0.216	0.00000	7.03723	0.00000	0.00000	30.49081	0.00000
0.1200	9.148	-0.226	3.758	-0.177	0.000	0.413	-25.142	9.959	5.346	-0.203	0.000	0.216	0.00000	48.03777	0.00000	0.00000	28.05903	0.00000
0.1225	9.368	0.117	3.756	-0.167	0.000	0.406	-25.317	9.615	5.386	-0.202	0.000	0.215	0.00000	-93.73933	0.00000	0.00000	28.75612	0.00000
0.1250	9.588	-0.931	3.886	-0.187	0.000	0.377	-24.969	9.101	5.695	-0.203	0.000	0.217	0.00000	16.06444	0.00000	0.00000	30.21262	0.00000
0.1275	9.501	-0.406	4.064	-0.177	0.000	0.382	-25.016	9.104	5.998	-0.202	0.000	0.215	0.00000	33.96308	0.00000	0.00000	30.23457	0.00000
0.1300	9.328	-0.397	3.935	-0.193	0.000	0.426	-25.013	9.957	5.387	-0.202	0.000	0.213	0.00000	25.66468	0.00000	0.00000	27.52323	0.00000
0.1325	9.284	-2.135	4.246	-0.211	0.000	0.405	-24.581	9.270	5.958	-0.202	0.000	0.216	0.00000	6.86406	0.00000	0.00000	29.43556	0.00000
0.1350	9.857	-1.792	4.198	-0.214	0.000	0.402	-24.754	9.616	5.871	-0.202	0.000	0.216	0.00000	8.19736	0.00000	0.00000	28.82880	0.00000
0.1375	9.195	-0.573	3.757	-0.204	0.000	0.406	-24.884	10.473	5.651	-0.202	0.000	0.213	0.00000	19.61301	0.00000	0.00000	26.67548	0.00000
0.1400	9.858	-0.923	4.198	-0.199	0.000	0.417	-25.059	9.952	5.432	-0.201	0.000	0.216	0.00000	13.25757	0.00000	0.00000	27.92514	0.00000
0.1425	9.460	-0.221	4.155	-0.198	0.000	0.406	-24.452	9.441	6.001	-0.199	0.000	0.215	0.00000	51.35049	0.00000	0.00000	28.92253	0.00000
0.1450	9.945	-1.447	4.197	-0.208	0.000	0.402	-24.409	9.613	6.131	-0.202	0.000	0.212	0.00000	9.82204	0.00000	0.00000	28.06478	0.00000
0.1475	9.460	-2.658	4.114	-0.212	0.000	0.418	-24.410	10.473	6.311	-0.203	0.000	0.214	0.00000	5.45210	0.00000	0.00000	26.94464	0.00000
0.1500	9.728	-1.787	4.554	-0.214	0.000	0.417	-24.147	9.096	6.045	-0.200	0.000	0.215	0.00000	7.62860	0.00000	0.00000	29.50892	0.00000
0.1525	9.988	-1.101	4.284	-0.197	0.000	0.391	-24.192	10.303	6.353	-0.202	0.000	0.212	0.00000	13.45764	0.00000	0.00000	26.80983	0.00000
0.1550	9.637	-2.309	4.202	-0.212	0.000	0.425	-24.281	8.753	6.346	-0.199	0.000	0.212	0.00000	5.90609	0.00000	0.00000	30.05261	0.00000
0.1575	9.682	-0.222	4.596	-0.194	0.000	0.402	-24.235	10.981	5.917	-0.203	0.000	0.212	0.00000	55.52919	0.00000	0.00000	25.16369	0.00000
0.1600	9.552	-0.740	4.510	-0.208	0.000	0.423	-23.973	10.295	5.873	-0.200	0.000	0.213	0.00000	15.32566	0.00000	0.00000	26.37261	0.00000
0.1625	9.417	-0.389	4.334	-0.215	0.000	0.407	-24.017	10.634	5.741	-0.200	0.000	0.213	0.00000	29.02999	0.00000	0.00000	25.59031	0.00000
0.1650	9.990	-1.964	4.376	-0.209	0.000	0.416	-23.583	10.127	6.531	-0.203	0.000	0.213	0.00000	7.32082	0.00000	0.00000	26.82245	0.00000
0.1675	9.900	-1.960	4.200	-0.224	0.000	0.400	-23.843	8.576	5.910	-0.197	0.000	0.213	0.00000	7.72094	0.00000	0.00000	29.83441	0.00000
0.1700	9.858	-1.095	4.506	-0.212	0.000	0.387	-23.405	9.782	6.004	-0.201	0.000	0.212	0.00000	13.51413	0.00000	0.00000	26.82985	0.00000
0.1725	10.035	-1.794	4.418	-0.209	0.000	0.406	-23.710	11.842	5.965	-0.203	0.000	0.211	0.00000	8.30223	0.00000	0.00000	23.60100	0.00000
0.1750	9.858	-2.134	4.421	-0.216	0.000	0.416	-23.362	9.949	5.785	-0.201	0.000	0.211	0.00000	6.74786	0.00000	0.00000	26.04668	0.00000
0.1775	10.166	-2.314	4.287	-0.211	0.000	0.423	-23.272	10.635	5.568	-0.202	0.000	0.209	0.00000	6.21895	0.00000	0.00000	24.42317	0.00000
0.1800	9.507	-0.393	4.244	-0.212	0.000	0.419	-23.795	11.322	5.349	-0.201	0.000	0.210	0.00000	26.90848	0.00000	0.00000	23.72339	0.00000
0.1825	9.857	-0.051	4.330	-0.192	0.000	0.410	-23.751	10.804	5.260	-0.202	0.000	0.210	0.00000	223.67865	0.00000	0.00000	24.28116	0.00000
0.1850	9.769	-0.743	4.111	-0.209	0.000	0.420	-23.576	11.325	5.393	-0.200	0.000	0.208	0.00000	15.19960	0.00000	0.00000	23.51137	0.00000
0.1875	9.772	-1.439	4.376	-0.215	0.000	0.420	-23.532	11.663	5.132	-0.202	0.000	0.208	0.00000	8.76060	0.00000	0.00000	22.67729	0.00000
0.1900	9.595	-0.565	4.509	-0.212	0.000	0.408	-23.401	10.976	5.173	-0.201	0.000	0.208	0.00000	21.17592	0.00000	0.00000	23.48414	0.00000
0.1925	9.814	-1.092	4.464	-0.205	0.000	0.413	-23.405	10.295	5.784	-0.199	0.000	0.209	0.00000	11.91242	0.00000	0.00000	25.31606	0.00000
0.1950	10.080	-1.965	4.375	-0.215	0.000	0.416	-23.273	10.293	5.698	-0.201	0.000	0.209	0.00000	7.21129	0.00000	0.00000	25.04776	0.00000
0.1975	10.257	-1.793	4.461	-0.220	0.000	0.412	-23.098	11.323	5.525	-0.201	0.000	0.207	0.00000	7.96928	0.00000	0.00000	23.06017	0.00000
0.2000	9.727	-1.261	4.289	-0.226	0.000	0.417	-23.532	12.178	5.133	-0.201	0.000	0.208	0.00000	9.58733	0.00000	0.00000	22.09982	0.00000
0.2025	10.079	-0.048	4.595	-0.196	0.000	0.412	-23.317	10.977	5.391	-0.199	0.000	0.208	0.00000	241.95793	0.00000	0.00000	23.60803	0.00000
0.2050	9.814	-1.096	4.506	-0.205	0.000	0.387	-22.881	11.150	5.703	-0.202	0.000	0.210	0.00000	13.64960	0.00000	0.00000	23.62186	0.00000
0.2075	9.815	-0.912	4.555	-0.202	0.000	0.437	-23.360	12.353	5.439	-0.200	0.000	0.207	0.00000	12.14381	0.00000	0.00000	21.87533	0.00000
0.2100	9.903	-0.740	4.509	-0.210	0.000	0.414	-23.096	12.177	5.090	-0.201	0.000	0.207	0.00000	16.49551	0.00000	0.00000	21.63343	0.00000
0.2125	10.256	-2.137	4.641	-0.210	0.000	0.422	-23.054	10.635	5.438	-0.200	0.000	0.209	0.00000	6.87624	0.00000	0.00000	24.26939	0.00000
0.2150	10.170	-2.136	4.551	-0.231	0.000	0.407	-22.966	11.151	5.440	-0.202	0.000	0.208	0.00000	7.06179	0.00000	0.00000	23.30933	0.00000
0.2175	9.728	-1.261	4.466	-0.215	0.000	0.427	-23.312	11.145	4.780	-0.200	0.000	0.208	0.00000	9.41576	0.00000	0.00000	22.92964	0.00000
0.2200	10.167	-1.966	4.595	-0.208	0.000	0.404	-22.748	10.979	5.396	-0.200	0.000	0.208	0.00000	8.05104	0.00000	0.00000	23.39270	0.00000
0.2225	10.033	-1.964	4.243	-0.215	0.000	0.413	-23.009	10.635	5.261	-0.199	0.000	0.206	0.00000	7.32123	0.00000	0.00000	23.72318	0.00000
0.2250	10.036	-1.788	4.641	-0.215	0.000	0.413	-22.572	10.978	5.265	-0.201	0.000	0.207	0.00000	8.07681	0.00000	0.00000	23.04059	0.00000
0.2275	10.212	-2.483	4.376	-0.227	0.000	0.423	-22.877	10.979	5.176	-0.200	0.000	0.207	0.00000	5.77990	0.00000	0.00000	23.24894	0.00000
